<svg xmlns="http://www.w3.org/2000/svg" viewBox="0 0 512 470"><defs><style>.cls-1{fill:#033b92;}.cls-2{fill:#fc3b1b;}</style></defs><title>Ресурс 1</title><g id="Слой_2" data-name="Слой 2"><g id="Capa_1" data-name="Capa 1"><circle class="cls-1" cx="257.3" cy="279.74" r="120.7"/><polygon class="cls-2" points="182 182.89 236.37 197.82 213.87 248.93 236.37 251.59 221.34 310.14 281.73 341.25 241.43 388.52 205.43 292.23 146 240.78 164 202.89 182 182.89"/><polygon class="cls-2" points="366 314.71 378 279.74 357.73 217.89 335 197.82 282 215.89 316 240.78 316 279.74 366 314.71"/><path d="M386,280c0-72.39-58.89-130-130-130-73,0-130,59.55-130,130,0,71.68,58.32,130,130,130A130,130,0,0,0,386,280Zm-20,0a111.2,111.2,0,0,1-.8,13.19c-7.75-8.74-17.82-11-25.93-12.82-7-1.56-11-2.59-12.89-5.63-1.57-2.53-.92-5.39,1.05-11.8,2.3-7.47,5.44-17.69-1.05-28.2-6.27-10.14-18.31-11.62-28-12.81-3.27-.4-8.56-1-10.51-2,.23-3.09,14-8.79,30.33-9.92h22.63A109.74,109.74,0,0,1,366,280ZM182.92,197.82c9,4.18,19.73,4.33,29.44,4.46,5.34.07,14.2.18,16.34,1.7,1,3.07-3.44,8.17-9,14-6.23,6.6-13.28,14.08-11.73,23.58,1.69,10.52,10.28,14.8,15.4,17.36a25.08,25.08,0,0,1,4.57,2.64c-.19,3.42-4.83,12.56-11,22.14-11.12-12.07-31.22-31.49-50.89-38.2a65.38,65.38,0,0,0-13.53-3,110.61,110.61,0,0,1,30.35-44.75ZM146,280a110.76,110.76,0,0,1,1.46-17.84,48.84,48.84,0,0,1,12.19,2.3c17.27,5.9,38.16,27.35,47.65,38.45-1.2,8.66-3,26.87,1,40,3.07,10.16,16.95,30.25,28.06,45.34A110.17,110.17,0,0,1,146,280Zm102.63,76.18a39.57,39.57,0,0,0-2.36,11.61c-9.56-13.46-17.26-25.55-18.82-30.69-1.81-6-1.81-14.81-1.27-22.39,26.19,12.17,23.38,12.4,33.84,18.38,6.45,3.69,7.7,4.83,7.84,6.58a34.59,34.59,0,0,1-4.08,2.33c-5,2.58-11.8,6.1-15.15,14.18Zm18.48,7.65c.54-1.32,3.25-2.71,5.86-4.06,5.58-2.89,14.91-7.71,14.91-19.77,0-14-10.36-19.94-17.93-24.27-9.87-5.64-8.48-6.8-37-19.92,1.33-2,2.74-4.23,4.14-6.55,10.93-18.1,11.44-26,10.65-30.86-1.71-10.51-10.28-14.79-15.41-17.35a36.29,36.29,0,0,1-4.13-2.28,65,65,0,0,1,6.08-7c7.62-8.09,19.14-20.31,12.83-35.56-5.61-13.52-21-13.72-34.5-13.89-2.26,0-4.59-.06-6.89-.15A108.9,108.9,0,0,1,256,170a110.16,110.16,0,0,1,63.21,20h-1.34l-.63,0c-8.25.52-49.36,4.43-49.36,30,0,8.25,4.19,14.69,11.81,18.14,5,2.26,10.72,3,16.27,3.65,4.56.56,12.18,1.49,13.41,3.47,1.56,2.53.92,5.4-1.06,11.81-2.29,7.46-5.44,17.68,1.06,28.19,6.4,10.35,17,12.72,25.53,14.63,6.42,1.44,12,2.68,15.42,6.65,1.06,1.23,3.77,5.08,7.41,15.35a109.2,109.2,0,0,1-91,67.59c-1.1-12-1-22.32.37-25.65Z"/><path d="M16.6,233.52,66,190.14V460a10,10,0,0,0,10,10H211a10,10,0,0,0,0-20H86V172.58L256,23.31,426,172.58V450H301a10,10,0,0,0,0,20H436a10,10,0,0,0,10-10V190.14l49.4,43.38a10,10,0,0,0,13.2-15l-246-216a10,10,0,0,0-13.2,0c-6.83,6-240.16,210.87-246,216a10,10,0,0,0,13.2,15Z"/><circle cx="256" cy="460" r="10"/></g></g></svg>